<?xml version="1.0" encoding="utf-8"?>
<!-- Generator: Adobe Illustrator 18.1.1, SVG Export Plug-In . SVG Version: 6.00 Build 0)  -->
<!DOCTYPE svg PUBLIC "-//W3C//DTD SVG 1.1//EN" "http://www.w3.org/Graphics/SVG/1.1/DTD/svg11.dtd">
<svg version="1.1" xmlns="http://www.w3.org/2000/svg" xmlns:xlink="http://www.w3.org/1999/xlink" x="0px" y="0px" width="674px"
	 height="85px" viewBox="0 0 674 85" enable-background="new 0 0 674 85" xml:space="preserve">
<g id="Layer_2">
	<rect x="-14.3" y="-5.8" display="none" fill="#020202" width="707.1" height="94.7"/>
</g>
<g id="Layer_1">
	<g>
		<path fill="#FFFFFF" d="M37.6,54.7c-0.3-5.1-0.6-11.2-0.5-15.8h-0.2c-1.2,4.3-2.8,8.8-4.6,13.9l-6.5,17.8h-3.6l-5.9-17.4
			c-1.7-5.2-3.2-9.9-4.2-14.2H12c-0.1,4.6-0.4,10.7-0.7,16.2l-1,15.7H5.8l2.6-36.6h6l6.2,17.7c1.5,4.5,2.8,8.5,3.7,12.3h0.2
			c0.9-3.7,2.2-7.7,3.9-12.3l6.5-17.7h6l2.3,36.6h-4.6L37.6,54.7z"/>
		<path fill="#FFFFFF" d="M69.3,69.8c-1.2,0.7-4,1.5-7.5,1.5c-7.9,0-13.1-5.4-13.1-13.4c0-8.1,5.5-14,14.1-14c2.8,0,5.3,0.7,6.6,1.4
			L68.4,49c-1.1-0.7-2.9-1.2-5.5-1.2c-6,0-9.3,4.5-9.3,9.9c0,6.1,3.9,9.8,9.1,9.8c2.7,0,4.5-0.7,5.9-1.3L69.3,69.8z"/>
		<path fill="#FFFFFF" d="M102.9,69.2c-2.1,0.8-6.3,2-11.2,2c-5.5,0-10.1-1.4-13.7-4.8c-3.1-3-5.1-7.9-5.1-13.6
			c0.1-10.9,7.5-18.9,19.8-18.9c4.2,0,7.5,0.9,9.1,1.7l-1.1,3.9c-2-0.9-4.4-1.6-8.1-1.6c-8.9,0-14.7,5.5-14.7,14.7
			c0,9.3,5.6,14.8,14.1,14.8c3.1,0,5.2-0.4,6.3-1V55.4h-7.4v-3.8h12.1V69.2z"/>
		<path fill="#FFFFFF" d="M132,63.6c0,2.7,0.1,5.1,0.2,7.2H128l-0.3-4.3h-0.1c-1.2,2.1-4,4.9-8.7,4.9c-4.1,0-9.1-2.3-9.1-11.5V44.5
			h4.8v14.5c0,5,1.5,8.4,5.9,8.4c3.2,0,5.4-2.2,6.3-4.3c0.3-0.7,0.4-1.6,0.4-2.4V44.5h4.8V63.6z"/>
		<path fill="#FFFFFF" d="M145.2,37.1c0.1,1.6-1.1,2.9-3,2.9c-1.7,0-2.9-1.3-2.9-2.9c0-1.7,1.2-3,3-3
			C144.1,34.1,145.2,35.4,145.2,37.1z M139.9,70.8V44.5h4.8v26.3H139.9z"/>
		<path fill="#FFFFFF" d="M152.6,51.6c0-2.7-0.1-4.9-0.2-7.1h4.2l0.3,4.3h0.1c1.3-2.5,4.3-4.9,8.7-4.9c3.6,0,9.3,2.2,9.3,11.2v15.7
			h-4.8V55.6c0-4.2-1.6-7.8-6.1-7.8c-3.1,0-5.6,2.2-6.4,4.9c-0.2,0.6-0.3,1.4-0.3,2.2v15.8h-4.8V51.6z"/>
		<path fill="#FFFFFF" d="M182.7,51.6c0-2.7-0.1-4.9-0.2-7.1h4.2l0.3,4.3h0.1c1.3-2.5,4.3-4.9,8.7-4.9c3.6,0,9.3,2.2,9.3,11.2v15.7
			h-4.8V55.6c0-4.2-1.6-7.8-6.1-7.8c-3.1,0-5.6,2.2-6.4,4.9c-0.2,0.6-0.3,1.4-0.3,2.2v15.8h-4.8V51.6z"/>
		<path fill="#FFFFFF" d="M209.8,77.5c1.2-3.2,2.7-9,3.3-13l5.3-0.5c-1.2,4.6-3.6,10.6-5.2,13.2L209.8,77.5z"/>
		<path fill="#FFFFFF" d="M240.5,34.2v15.3h17.7V34.2h4.8v36.6h-4.8V53.6h-17.7v17.2h-4.7V34.2H240.5z"/>
		<path fill="#FFFFFF" d="M276.8,37.1c0.1,1.6-1.1,2.9-3,2.9c-1.7,0-2.9-1.3-2.9-2.9c0-1.7,1.2-3,3-3
			C275.7,34.1,276.8,35.4,276.8,37.1z M271.5,70.8V44.5h4.8v26.3H271.5z"/>
		<path fill="#FFFFFF" d="M284.2,32.2h4.8v38.5h-4.8V32.2z"/>
		<path fill="#FFFFFF" d="M297,32.2h4.8v38.5H297V32.2z"/>
		<path fill="#FFFFFF" d="M309.2,65.9c1.4,0.9,3.9,1.9,6.3,1.9c3.5,0,5.1-1.7,5.1-3.9c0-2.3-1.4-3.5-4.9-4.8
			c-4.7-1.7-6.9-4.3-6.9-7.4c0-4.2,3.4-7.7,9.1-7.7c2.7,0,5,0.8,6.5,1.6l-1.2,3.5c-1-0.7-2.9-1.5-5.4-1.5c-2.8,0-4.4,1.6-4.4,3.6
			c0,2.2,1.6,3.1,5,4.5c4.6,1.7,6.9,4,6.9,7.9c0,4.6-3.6,7.9-9.8,7.9c-2.9,0-5.5-0.7-7.4-1.8L309.2,65.9z"/>
		<path fill="#FFFFFF" d="M331.3,51.6c0-2.7-0.1-4.9-0.2-7.1h4.2l0.2,4.2h0.2c1.5-2.5,3.9-4.8,8.3-4.8c3.6,0,6.3,2.2,7.4,5.3h0.1
			c0.8-1.5,1.8-2.6,2.9-3.4c1.6-1.2,3.3-1.8,5.8-1.8c3.5,0,8.6,2.3,8.6,11.4v15.5h-4.7V55.9c0-5-1.8-8.1-5.7-8.1
			c-2.7,0-4.8,2-5.6,4.3c-0.2,0.7-0.4,1.5-0.4,2.4v16.2h-4.7V55c0-4.2-1.8-7.2-5.5-7.2c-3,0-5.2,2.4-5.9,4.8
			c-0.3,0.7-0.4,1.5-0.4,2.3v15.9h-4.7V51.6z"/>
		<path fill="#FFFFFF" d="M391.2,70.8l-0.4-3.3h-0.2c-1.5,2.1-4.3,3.9-8,3.9c-5.3,0-8-3.7-8-7.5c0-6.4,5.6-9.8,15.8-9.8v-0.5
			c0-2.2-0.6-6.1-6-6.1c-2.4,0-5,0.8-6.8,2l-1.1-3.1c2.2-1.4,5.3-2.3,8.6-2.3c8,0,10,5.5,10,10.8v9.8c0,2.3,0.1,4.5,0.4,6.3H391.2z
			 M390.5,57.4c-5.2-0.1-11.1,0.8-11.1,5.9c0,3.1,2.1,4.6,4.5,4.6c3.4,0,5.6-2.2,6.4-4.4c0.2-0.5,0.3-1,0.3-1.5V57.4z"/>
		<path fill="#FFFFFF" d="M402.8,51.6c0-2.7-0.1-4.9-0.2-7.1h4.2l0.3,4.3h0.1c1.3-2.5,4.3-4.9,8.7-4.9c3.6,0,9.3,2.2,9.3,11.2v15.7
			h-4.8V55.6c0-4.2-1.6-7.8-6.1-7.8c-3.1,0-5.6,2.2-6.4,4.9c-0.2,0.6-0.3,1.4-0.3,2.2v15.8h-4.8V51.6z"/>
		<path fill="#FFFFFF" d="M467.5,70.8c-1-1-2-2.1-3.4-3.6c-3.1,2.9-6.7,4.2-10.7,4.2c-7.1,0-11.2-4.8-11.2-10.3c0-5,3-8.4,7.2-10.7
			v-0.2c-1.9-2.4-3-5-3-7.7c0-4.5,3.2-9,9.3-9c4.6,0,8.1,3,8.1,7.8c0,3.9-2.2,6.9-8,9.8v0.2c3.1,3.6,6.6,7.6,8.9,10.2
			c1.7-2.6,2.8-6.1,3.5-10.7h4.3c-1,5.8-2.6,10.3-5.3,13.5c2,2.1,3.9,4.1,6,6.5H467.5z M461.7,64.5c-2.2-2.4-6.2-6.8-10.3-11.5
			c-2,1.2-4.7,3.6-4.7,7.4c0,4.2,3.1,7.4,7.5,7.4C457.3,67.8,460,66.4,461.7,64.5z M450.6,42.2c0,2.6,1.2,4.6,2.8,6.6
			c3.7-2.1,6.1-4.1,6.1-7.2c0-2.2-1.2-4.7-4.2-4.7C452.2,36.8,450.6,39.3,450.6,42.2z"/>
		<path fill="#FFFFFF" d="M488.9,34.6c2.3-0.4,5.3-0.7,9.1-0.7c4.7,0,8.1,1.1,10.3,3c2,1.7,3.2,4.4,3.2,7.7c0,3.3-1,5.9-2.8,7.8
			c-2.5,2.7-6.6,4-11.2,4c-1.4,0-2.7-0.1-3.8-0.3v14.7h-4.7V34.6z M493.7,52.3c1,0.3,2.3,0.4,3.9,0.4c5.7,0,9.2-2.8,9.2-7.8
			c0-4.8-3.4-7.2-8.6-7.2c-2.1,0-3.6,0.2-4.5,0.4V52.3z"/>
		<path fill="#FFFFFF" d="M530.8,70.8l-0.4-3.3h-0.2c-1.5,2.1-4.3,3.9-8,3.9c-5.3,0-8-3.7-8-7.5c0-6.4,5.6-9.8,15.8-9.8v-0.5
			c0-2.2-0.6-6.1-6-6.1c-2.4,0-5,0.8-6.8,2l-1.1-3.1c2.2-1.4,5.3-2.3,8.6-2.3c8,0,10,5.5,10,10.8v9.8c0,2.3,0.1,4.5,0.4,6.3H530.8z
			 M530.1,57.4c-5.2-0.1-11.1,0.8-11.1,5.9c0,3.1,2.1,4.6,4.5,4.6c3.4,0,5.6-2.2,6.4-4.4c0.2-0.5,0.3-1,0.3-1.5V57.4z"/>
		<path fill="#FFFFFF" d="M542.4,32.2h4.8v38.5h-4.8V32.2z"/>
		<path fill="#FFFFFF" d="M557.9,58.5c0.1,6.5,4.2,9.1,9,9.1c3.4,0,5.5-0.6,7.3-1.4l0.8,3.4c-1.7,0.8-4.6,1.6-8.7,1.6
			c-8.1,0-12.9-5.3-12.9-13.2c0-7.9,4.7-14.2,12.3-14.2c8.6,0,10.9,7.5,10.9,12.4c0,1-0.1,1.7-0.2,2.2H557.9z M571.9,55.1
			c0.1-3-1.2-7.8-6.6-7.8c-4.8,0-6.9,4.5-7.3,7.8H571.9z"/>
		<path fill="#FFFFFF" d="M582.9,70.8V48.1h-3.7v-3.6h3.7v-1.2c0-3.7,0.8-7.1,3-9.2c1.8-1.7,4.2-2.4,6.4-2.4c1.7,0,3.1,0.4,4.1,0.8
			l-0.7,3.7c-0.7-0.3-1.7-0.6-3-0.6c-4.1,0-5.1,3.6-5.1,7.6v1.4h6.4v3.6h-6.4v22.6H582.9z"/>
		<path fill="#FFFFFF" d="M597.1,65.9c1.4,0.9,3.9,1.9,6.3,1.9c3.5,0,5.1-1.7,5.1-3.9c0-2.3-1.4-3.5-4.9-4.8
			c-4.7-1.7-6.9-4.3-6.9-7.4c0-4.2,3.4-7.7,9.1-7.7c2.7,0,5,0.8,6.5,1.6L611,49c-1-0.7-2.9-1.5-5.4-1.5c-2.8,0-4.4,1.6-4.4,3.6
			c0,2.2,1.6,3.1,5,4.5c4.6,1.7,6.9,4,6.9,7.9c0,4.6-3.6,7.9-9.8,7.9c-2.9,0-5.5-0.7-7.4-1.8L597.1,65.9z"/>
		<path fill="#FFFFFF" d="M624,56.6h0.1c0.7-0.9,1.6-2.1,2.3-3l7.7-9.1h5.8l-10.2,10.8l11.6,15.5h-5.8l-9.1-12.6l-2.4,2.7v9.9h-4.7
			V32.2h4.7V56.6z"/>
		<path fill="#FFFFFF" d="M647.2,44.5l5.8,15.5c0.6,1.7,1.2,3.8,1.7,5.4h0.1c0.5-1.6,1-3.6,1.7-5.5l5.2-15.4h5l-7.2,18.7
			c-3.4,9-5.8,13.6-9,16.5c-2.3,2.1-4.7,2.9-5.9,3.1l-1.2-4c1.2-0.4,2.8-1.1,4.2-2.3c1.3-1,2.9-2.9,4-5.3c0.2-0.5,0.4-0.9,0.4-1.1
			s-0.1-0.7-0.3-1.2L642,44.5H647.2z"/>
	</g>
	<g>
		<path fill="#FFCD29" d="M7.6,8.8H2.6V7.1h12v1.8H9.7v14.4H7.6V8.8z"/>
		<path fill="#FFCD29" d="M16.2,6.2h2.1v7.2h0c0.3-0.6,0.9-1.1,1.5-1.5c0.6-0.4,1.4-0.6,2.2-0.6c1.6,0,4.1,1,4.1,5v6.9H24v-6.7
			c0-1.9-0.7-3.5-2.7-3.5c-1.4,0-2.4,1-2.8,2.1c-0.1,0.3-0.1,0.6-0.1,1v7h-2.1V6.2z"/>
		<path fill="#FFCD29" d="M30.7,17.8c0,2.9,1.9,4,4,4c1.5,0,2.4-0.3,3.2-0.6l0.4,1.5c-0.7,0.3-2,0.7-3.9,0.7c-3.6,0-5.7-2.4-5.7-5.9
			c0-3.5,2.1-6.3,5.4-6.3c3.8,0,4.8,3.3,4.8,5.5c0,0.4,0,0.8-0.1,1H30.7z M36.9,16.3c0-1.3-0.6-3.4-2.9-3.4c-2.1,0-3.1,2-3.2,3.4
			H36.9z"/>
		<path fill="#FFCD29" d="M46.7,7.1h2.1v14.4h6.9v1.8h-9V7.1z"/>
		<path fill="#FFCD29" d="M64.4,23.2l-0.2-1.5h-0.1c-0.6,0.9-1.9,1.7-3.6,1.7c-2.4,0-3.6-1.7-3.6-3.3c0-2.8,2.5-4.3,7-4.3v-0.2
			c0-1-0.3-2.7-2.6-2.7c-1.1,0-2.2,0.3-3,0.9l-0.5-1.4c1-0.6,2.4-1,3.8-1c3.6,0,4.4,2.4,4.4,4.8v4.3c0,1,0,2,0.2,2.8H64.4z
			 M64.1,17.3c-2.3,0-4.9,0.4-4.9,2.6c0,1.4,0.9,2,2,2c1.5,0,2.5-1,2.8-1.9c0.1-0.2,0.1-0.5,0.1-0.7V17.3z"/>
		<path fill="#FFCD29" d="M70.2,11.6l1.5,5.9c0.3,1.3,0.6,2.5,0.9,3.7h0.1c0.3-1.2,0.6-2.4,1-3.7l1.9-5.9h1.8l1.8,5.8
			c0.4,1.4,0.8,2.6,1,3.8h0.1c0.2-1.2,0.5-2.4,0.9-3.8l1.7-5.8h2.1l-3.7,11.6h-1.9l-1.8-5.5c-0.4-1.3-0.7-2.4-1-3.8h0
			c-0.3,1.4-0.6,2.6-1.1,3.8l-1.9,5.5h-1.9L68,11.6H70.2z"/>
		<path fill="#FFCD29" d="M106,15c0,5.6-3.4,8.5-7.5,8.5c-4.3,0-7.3-3.3-7.3-8.2c0-5.1,3.2-8.5,7.5-8.5C103.1,6.8,106,10.2,106,15z
			 M93.4,15.2c0,3.5,1.9,6.6,5.2,6.6c3.3,0,5.2-3,5.2-6.7c0-3.2-1.7-6.6-5.2-6.6C95.1,8.5,93.4,11.7,93.4,15.2z"/>
		<path fill="#FFCD29" d="M123.5,8.3c-0.5-0.3-1.4-0.6-2.4-0.6c-2.2,0-2.9,1.6-2.9,3.4v0.6h6.8v11.6h-2.1v-10h-4.6v10h-2.1v-10h-4.9
			v10h-2.1v-10h-1.6v-1.6h1.6v-0.4c0-1.5,0.4-2.9,1.4-3.9c0.7-0.7,1.7-1.1,3-1.1c0.8,0,1.6,0.3,2,0.5L115,8.3
			c-0.4-0.2-0.9-0.4-1.5-0.4c-0.7,0-1.2,0.2-1.5,0.6c-0.6,0.6-0.8,1.7-0.8,2.7v0.5h4.9V11c0-3.1,1.8-5.1,5.1-5.1
			c1.1,0,2.3,0.3,2.9,0.7L123.5,8.3z"/>
		<path fill="#FFCD29" d="M136.8,22.8c-0.6,0.3-1.8,0.7-3.3,0.7c-3.5,0-5.8-2.4-5.8-5.9c0-3.6,2.4-6.2,6.2-6.2
			c1.2,0,2.4,0.3,2.9,0.6l-0.5,1.6c-0.5-0.3-1.3-0.6-2.4-0.6c-2.7,0-4.1,2-4.1,4.4c0,2.7,1.7,4.3,4,4.3c1.2,0,2-0.3,2.6-0.6
			L136.8,22.8z"/>
		<path fill="#FFCD29" d="M140.3,17.8c0,2.9,1.9,4,4,4c1.5,0,2.4-0.3,3.2-0.6l0.4,1.5c-0.7,0.3-2,0.7-3.9,0.7
			c-3.6,0-5.7-2.4-5.7-5.9c0-3.5,2.1-6.3,5.4-6.3c3.8,0,4.8,3.3,4.8,5.5c0,0.4,0,0.8-0.1,1H140.3z M146.5,16.3
			c0-1.3-0.6-3.4-2.9-3.4c-2.1,0-3.1,2-3.2,3.4H146.5z"/>
		<path fill="#FFCD29" d="M150.9,21.1c0.6,0.4,1.7,0.8,2.8,0.8c1.5,0,2.3-0.8,2.3-1.7c0-1-0.6-1.6-2.2-2.1c-2.1-0.7-3.1-1.9-3.1-3.3
			c0-1.9,1.5-3.4,4-3.4c1.2,0,2.2,0.3,2.9,0.7l-0.5,1.5c-0.5-0.3-1.3-0.7-2.4-0.7c-1.2,0-1.9,0.7-1.9,1.6c0,1,0.7,1.4,2.2,2
			c2,0.8,3,1.8,3,3.5c0,2-1.6,3.5-4.3,3.5c-1.3,0-2.4-0.3-3.3-0.8L150.9,21.1z"/>
		<path fill="#FFCD29" d="M176.3,17.3c0,4.3-3,6.2-5.8,6.2c-3.1,0-5.6-2.3-5.6-6c0-3.9,2.5-6.2,5.8-6.2
			C174,11.4,176.3,13.8,176.3,17.3z M167.1,17.5c0,2.5,1.5,4.5,3.5,4.5c2,0,3.5-1.9,3.5-4.5c0-2-1-4.5-3.5-4.5
			S167.1,15.2,167.1,17.5z"/>
		<path fill="#FFCD29" d="M179.2,23.2v-10h-1.6v-1.6h1.6v-0.6c0-1.6,0.4-3.1,1.3-4.1c0.8-0.8,1.8-1.1,2.8-1.1c0.7,0,1.4,0.2,1.8,0.3
			l-0.3,1.6c-0.3-0.1-0.7-0.3-1.3-0.3c-1.8,0-2.3,1.6-2.3,3.4v0.6h2.8v1.6h-2.8v10H179.2z"/>
	</g>
</g>
</svg>
