<?xml version="1.0" encoding="utf-8"?>
<!-- Generator: Adobe Illustrator 18.1.1, SVG Export Plug-In . SVG Version: 6.00 Build 0)  -->
<!DOCTYPE svg PUBLIC "-//W3C//DTD SVG 1.1//EN" "http://www.w3.org/Graphics/SVG/1.1/DTD/svg11.dtd">
<svg version="1.1" id="Layer_1" xmlns="http://www.w3.org/2000/svg" xmlns:xlink="http://www.w3.org/1999/xlink" x="0px" y="0px"
	 width="674px" height="85px" viewBox="-12 -2 674 85" enable-background="new -12 -2 674 85" xml:space="preserve">
<g id="Layer_2" display="none">
	<rect x="-26.3" y="-7.8" display="inline" fill="#020202" width="707.1" height="94.7"/>
</g>
<g id="Layer_1_1_">
	<g>
		<path fill="#FFFFFF" d="M25.6,52.7c-0.3-5.1-0.6-11.2-0.5-15.8h-0.2c-1.2,4.3-2.8,8.8-4.6,13.9l-6.5,17.8h-3.6L4.3,51.2
			C2.6,46,1.1,41.3,0.1,37H0c-0.1,4.6-0.4,10.7-0.7,16.2l-1,15.7h-4.5l2.6-36.6h6L8.6,50c1.5,4.5,2.8,8.5,3.7,12.3h0.2
			c0.9-3.7,2.2-7.7,3.9-12.3l6.5-17.7h6l2.3,36.6h-4.6L25.6,52.7z"/>
		<path fill="#FFFFFF" d="M57.3,67.8c-1.2,0.7-4,1.5-7.5,1.5c-7.9,0-13.1-5.4-13.1-13.4c0-8.1,5.5-14,14.1-14c2.8,0,5.3,0.7,6.6,1.4
			l-1,3.7c-1.1-0.7-2.9-1.2-5.5-1.2c-6,0-9.3,4.5-9.3,9.9c0,6.1,3.9,9.8,9.1,9.8c2.7,0,4.5-0.7,5.9-1.3L57.3,67.8z"/>
		<path fill="#FFFFFF" d="M90.9,67.2c-2.1,0.8-6.3,2-11.2,2c-5.5,0-10.1-1.4-13.7-4.8c-3.1-3-5.1-7.9-5.1-13.6
			c0.1-10.9,7.5-18.9,19.8-18.9c4.2,0,7.5,0.9,9.1,1.7l-1.1,3.9c-2-0.9-4.4-1.6-8.1-1.6c-8.9,0-14.7,5.5-14.7,14.7
			c0,9.3,5.6,14.8,14.1,14.8c3.1,0,5.2-0.4,6.3-1v-11h-7.4v-3.8H91v17.6H90.9z"/>
		<path fill="#FFFFFF" d="M120,61.6c0,2.7,0.1,5.1,0.2,7.2H116l-0.3-4.3h-0.1c-1.2,2.1-4,4.9-8.7,4.9c-4.1,0-9.1-2.3-9.1-11.5V42.5
			h4.8V57c0,5,1.5,8.4,5.9,8.4c3.2,0,5.4-2.2,6.3-4.3c0.3-0.7,0.4-1.6,0.4-2.4V42.5h4.8L120,61.6L120,61.6z"/>
		<path fill="#FFFFFF" d="M133.2,35.1c0.1,1.6-1.1,2.9-3,2.9c-1.7,0-2.9-1.3-2.9-2.9c0-1.7,1.2-3,3-3S133.2,33.4,133.2,35.1z
			 M127.9,68.8V42.5h4.8v26.3H127.9z"/>
		<path fill="#FFFFFF" d="M140.6,49.6c0-2.7-0.1-4.9-0.2-7.1h4.2l0.3,4.3h0.1c1.3-2.5,4.3-4.9,8.7-4.9c3.6,0,9.3,2.2,9.3,11.2v15.7
			h-4.8V53.6c0-4.2-1.6-7.8-6.1-7.8c-3.1,0-5.6,2.2-6.4,4.9c-0.2,0.6-0.3,1.4-0.3,2.2v15.8h-4.8V49.6z"/>
		<path fill="#FFFFFF" d="M170.7,49.6c0-2.7-0.1-4.9-0.2-7.1h4.2l0.3,4.3h0.1c1.3-2.5,4.3-4.9,8.7-4.9c3.6,0,9.3,2.2,9.3,11.2v15.7
			h-4.8V53.6c0-4.2-1.6-7.8-6.1-7.8c-3.1,0-5.6,2.2-6.4,4.9c-0.2,0.6-0.3,1.4-0.3,2.2v15.8h-4.8V49.6z"/>
		<path fill="#FFFFFF" d="M197.8,75.5c1.2-3.2,2.7-9,3.3-13l5.3-0.5c-1.2,4.6-3.6,10.6-5.2,13.2L197.8,75.5z"/>
		<path fill="#FFFFFF" d="M228.5,32.2v15.3h17.7V32.2h4.8v36.6h-4.8V51.6h-17.7v17.2h-4.7V32.2H228.5z"/>
		<path fill="#FFFFFF" d="M264.8,35.1c0.1,1.6-1.1,2.9-3,2.9c-1.7,0-2.9-1.3-2.9-2.9c0-1.7,1.2-3,3-3
			C263.7,32.1,264.8,33.4,264.8,35.1z M259.5,68.8V42.5h4.8v26.3H259.5z"/>
		<path fill="#FFFFFF" d="M272.2,30.2h4.8v38.5h-4.8V30.2z"/>
		<path fill="#FFFFFF" d="M285,30.2h4.8v38.5H285V30.2z"/>
		<path fill="#FFFFFF" d="M297.2,63.9c1.4,0.9,3.9,1.9,6.3,1.9c3.5,0,5.1-1.7,5.1-3.9c0-2.3-1.4-3.5-4.9-4.8
			c-4.7-1.7-6.9-4.3-6.9-7.4c0-4.2,3.4-7.7,9.1-7.7c2.7,0,5,0.8,6.5,1.6l-1.2,3.5c-1-0.7-2.9-1.5-5.4-1.5c-2.8,0-4.4,1.6-4.4,3.6
			c0,2.2,1.6,3.1,5,4.5c4.6,1.7,6.9,4,6.9,7.9c0,4.6-3.6,7.9-9.8,7.9c-2.9,0-5.5-0.7-7.4-1.8L297.2,63.9z"/>
		<path fill="#FFFFFF" d="M319.3,49.6c0-2.7-0.1-4.9-0.2-7.1h4.2l0.2,4.2h0.2c1.5-2.5,3.9-4.8,8.3-4.8c3.6,0,6.3,2.2,7.4,5.3h0.1
			c0.8-1.5,1.8-2.6,2.9-3.4c1.6-1.2,3.3-1.8,5.8-1.8c3.5,0,8.6,2.3,8.6,11.4v15.5h-4.7v-15c0-5-1.8-8.1-5.7-8.1
			c-2.7,0-4.8,2-5.6,4.3c-0.2,0.7-0.4,1.5-0.4,2.4v16.2h-4.7V53c0-4.2-1.8-7.2-5.5-7.2c-3,0-5.2,2.4-5.9,4.8
			c-0.3,0.7-0.4,1.5-0.4,2.3v15.9h-4.7V49.6H319.3z"/>
		<path fill="#FFFFFF" d="M379.2,68.8l-0.4-3.3h-0.2c-1.5,2.1-4.3,3.9-8,3.9c-5.3,0-8-3.7-8-7.5c0-6.4,5.6-9.8,15.8-9.8v-0.5
			c0-2.2-0.6-6.1-6-6.1c-2.4,0-5,0.8-6.8,2l-1.1-3.1c2.2-1.4,5.3-2.3,8.6-2.3c8,0,10,5.5,10,10.8v9.8c0,2.3,0.1,4.5,0.4,6.3h-4.3
			V68.8z M378.5,55.4c-5.2-0.1-11.1,0.8-11.1,5.9c0,3.1,2.1,4.6,4.5,4.6c3.4,0,5.6-2.2,6.4-4.4c0.2-0.5,0.3-1,0.3-1.5L378.5,55.4
			L378.5,55.4z"/>
		<path fill="#FFFFFF" d="M390.8,49.6c0-2.7-0.1-4.9-0.2-7.1h4.2l0.3,4.3h0.1c1.3-2.5,4.3-4.9,8.7-4.9c3.6,0,9.3,2.2,9.3,11.2v15.7
			h-4.8V53.6c0-4.2-1.6-7.8-6.1-7.8c-3.1,0-5.6,2.2-6.4,4.9c-0.2,0.6-0.3,1.4-0.3,2.2v15.8h-4.8L390.8,49.6L390.8,49.6z"/>
		<path fill="#FFFFFF" d="M455.5,68.8c-1-1-2-2.1-3.4-3.6c-3.1,2.9-6.7,4.2-10.7,4.2c-7.1,0-11.2-4.8-11.2-10.3c0-5,3-8.4,7.2-10.7
			v-0.2c-1.9-2.4-3-5-3-7.7c0-4.5,3.2-9,9.3-9c4.6,0,8.1,3,8.1,7.8c0,3.9-2.2,6.9-8,9.8v0.2c3.1,3.6,6.6,7.6,8.9,10.2
			c1.7-2.6,2.8-6.1,3.5-10.7h4.3c-1,5.8-2.6,10.3-5.3,13.5c2,2.1,3.9,4.1,6,6.5H455.5z M449.7,62.5c-2.2-2.4-6.2-6.8-10.3-11.5
			c-2,1.2-4.7,3.6-4.7,7.4c0,4.2,3.1,7.4,7.5,7.4C445.3,65.8,448,64.4,449.7,62.5z M438.6,40.2c0,2.6,1.2,4.6,2.8,6.6
			c3.7-2.1,6.1-4.1,6.1-7.2c0-2.2-1.2-4.7-4.2-4.7C440.2,34.8,438.6,37.3,438.6,40.2z"/>
		<path fill="#FFFFFF" d="M476.9,32.6c2.3-0.4,5.3-0.7,9.1-0.7c4.7,0,8.1,1.1,10.3,3c2,1.7,3.2,4.4,3.2,7.7s-1,5.9-2.8,7.8
			c-2.5,2.7-6.6,4-11.2,4c-1.4,0-2.7-0.1-3.8-0.3v14.7H477V32.6H476.9z M481.7,50.3c1,0.3,2.3,0.4,3.9,0.4c5.7,0,9.2-2.8,9.2-7.8
			c0-4.8-3.4-7.2-8.6-7.2c-2.1,0-3.6,0.2-4.5,0.4V50.3z"/>
		<path fill="#FFFFFF" d="M518.8,68.8l-0.4-3.3h-0.2c-1.5,2.1-4.3,3.9-8,3.9c-5.3,0-8-3.7-8-7.5c0-6.4,5.6-9.8,15.8-9.8v-0.5
			c0-2.2-0.6-6.1-6-6.1c-2.4,0-5,0.8-6.8,2l-1.1-3.1c2.2-1.4,5.3-2.3,8.6-2.3c8,0,10,5.5,10,10.8v9.8c0,2.3,0.1,4.5,0.4,6.3h-4.3
			V68.8z M518.1,55.4c-5.2-0.1-11.1,0.8-11.1,5.9c0,3.1,2.1,4.6,4.5,4.6c3.4,0,5.6-2.2,6.4-4.4c0.2-0.5,0.3-1,0.3-1.5v-4.6H518.1z"
			/>
		<path fill="#FFFFFF" d="M530.4,30.2h4.8v38.5h-4.8V30.2z"/>
		<path fill="#FFFFFF" d="M545.9,56.5c0.1,6.5,4.2,9.1,9,9.1c3.4,0,5.5-0.6,7.3-1.4l0.8,3.4c-1.7,0.8-4.6,1.6-8.7,1.6
			c-8.1,0-12.9-5.3-12.9-13.2s4.7-14.2,12.3-14.2c8.6,0,10.9,7.5,10.9,12.4c0,1-0.1,1.7-0.2,2.2h-18.5V56.5z M559.9,53.1
			c0.1-3-1.2-7.8-6.6-7.8c-4.8,0-6.9,4.5-7.3,7.8H559.9z"/>
		<path fill="#FFFFFF" d="M570.9,68.8V46.1h-3.7v-3.6h3.7v-1.2c0-3.7,0.8-7.1,3-9.2c1.8-1.7,4.2-2.4,6.4-2.4c1.7,0,3.1,0.4,4.1,0.8
			l-0.7,3.7c-0.7-0.3-1.7-0.6-3-0.6c-4.1,0-5.1,3.6-5.1,7.6v1.4h6.4v3.6h-6.4v22.6H570.9z"/>
		<path fill="#FFFFFF" d="M585.1,63.9c1.4,0.9,3.9,1.9,6.3,1.9c3.5,0,5.1-1.7,5.1-3.9c0-2.3-1.4-3.5-4.9-4.8
			c-4.7-1.7-6.9-4.3-6.9-7.4c0-4.2,3.4-7.7,9.1-7.7c2.7,0,5,0.8,6.5,1.6L599,47c-1-0.7-2.9-1.5-5.4-1.5c-2.8,0-4.4,1.6-4.4,3.6
			c0,2.2,1.6,3.1,5,4.5c4.6,1.7,6.9,4,6.9,7.9c0,4.6-3.6,7.9-9.8,7.9c-2.9,0-5.5-0.7-7.4-1.8L585.1,63.9z"/>
		<path fill="#FFFFFF" d="M612,54.6L612,54.6c0.8-0.9,1.7-2.1,2.4-3l7.7-9.1h5.8l-10.2,10.8l11.6,15.5h-5.8l-9.1-12.6l-2.4,2.7v9.9
			h-4.7V30.2h4.7L612,54.6L612,54.6z"/>
		<path fill="#FFFFFF" d="M635.2,42.5L641,58c0.6,1.7,1.2,3.8,1.7,5.4h0.1c0.5-1.6,1-3.6,1.7-5.5l5.2-15.4h5l-7.2,18.7
			c-3.4,9-5.8,13.6-9,16.5c-2.3,2.1-4.7,2.9-5.9,3.1l-1.2-4c1.2-0.4,2.8-1.1,4.2-2.3c1.3-1,2.9-2.9,4-5.3c0.2-0.5,0.4-0.9,0.4-1.1
			s-0.1-0.7-0.3-1.2L630,42.5H635.2z"/>
	</g>
	<g>
		<path fill="#FFCD29" d="M252,7.8h-4.1V6.4h9.9v1.5h-4v11.8H252V7.8z"/>
		<path fill="#FFCD29" d="M259,5.7h1.7v5.9l0,0c0.2-0.5,0.7-0.9,1.2-1.2c0.5-0.3,1.2-0.5,1.8-0.5c1.3,0,3.4,0.8,3.4,4.1v5.7h-1.7
			v-5.5c0-1.6-0.6-2.9-2.2-2.9c-1.2,0-2,0.8-2.3,1.7c-0.1,0.2-0.1,0.5-0.1,0.8v5.8h-1.7L259,5.7L259,5.7z"/>
		<path fill="#FFCD29" d="M270.9,15.2c0,2.4,1.6,3.3,3.3,3.3c1.2,0,2-0.2,2.6-0.5l0.3,1.2c-0.6,0.2-1.6,0.6-3.2,0.6
			c-3,0-4.7-2-4.7-4.8s1.7-5.2,4.4-5.2c3.1,0,3.9,2.7,3.9,4.5c0,0.3,0,0.7-0.1,0.8L270.9,15.2L270.9,15.2z M276,14
			c0-1.1-0.5-2.8-2.4-2.8c-1.7,0-2.5,1.6-2.6,2.8H276z"/>
		<path fill="#FFCD29" d="M284.1,6.4h1.7v11.8h5.7v1.5h-7.4V6.4z"/>
		<path fill="#FFCD29" d="M298.6,19.7l-0.2-1.2h-0.1c-0.5,0.7-1.6,1.4-3,1.4c-2,0-3-1.4-3-2.7c0-2.3,2.1-3.5,5.8-3.5v-0.2
			c0-0.8-0.2-2.2-2.1-2.2c-0.9,0-1.8,0.2-2.5,0.7l-0.4-1.2c0.8-0.5,2-0.8,3.1-0.8c3,0,3.6,2,3.6,3.9v3.5c0,0.8,0,1.6,0.2,2.3
			L298.6,19.7L298.6,19.7z M298.4,14.8c-1.9,0-4,0.3-4,2.1c0,1.2,0.7,1.6,1.6,1.6c1.2,0,2.1-0.8,2.3-1.6c0.1-0.2,0.1-0.4,0.1-0.6
			V14.8z"/>
		<path fill="#FFCD29" d="M303.4,10.1l1.2,4.8c0.2,1.1,0.5,2.1,0.7,3h0.1c0.2-1,0.5-2,0.8-3l1.6-4.8h1.5l1.5,4.8
			c0.3,1.2,0.7,2.1,0.8,3.1h0.1c0.2-1,0.4-2,0.7-3.1l1.4-4.8h1.7l-3,9.5H311l-1.5-4.5c-0.3-1.1-0.6-2-0.8-3.1l0,0
			c-0.2,1.2-0.5,2.1-0.9,3.1l-1.6,4.5h-1.6l-3-9.5H303.4z"/>
		<path fill="#FFCD29" d="M332.8,12.9c0,4.6-2.8,7-6.2,7c-3.5,0-6-2.7-6-6.7c0-4.2,2.6-7,6.2-7C330.5,6.2,332.8,9,332.8,12.9z
			 M322.5,13.1c0,2.9,1.6,5.4,4.3,5.4c2.7,0,4.3-2.5,4.3-5.5c0-2.6-1.4-5.4-4.3-5.4C323.9,7.6,322.5,10.2,322.5,13.1z"/>
		<path fill="#FFCD29" d="M347.2,7.4c-0.4-0.2-1.2-0.5-2-0.5c-1.8,0-2.4,1.3-2.4,2.8v0.5h5.6v9.5h-1.7v-8.2h-3.8v8.2h-1.7v-8.2h-4
			v8.2h-1.7v-8.2h-1.3v-1.3h1.3V9.9c0-1.2,0.3-2.4,1.2-3.2c0.6-0.6,1.4-0.9,2.5-0.9c0.7,0,1.3,0.2,1.6,0.4l-0.5,1.2
			c-0.3-0.2-0.7-0.3-1.2-0.3c-0.6,0-1,0.2-1.2,0.5c-0.5,0.5-0.7,1.4-0.7,2.2v0.4h4V9.7c0-2.5,1.5-4.2,4.2-4.2c0.9,0,1.9,0.2,2.4,0.6
			L347.2,7.4z"/>
		<path fill="#FFCD29" d="M358.2,19.3c-0.5,0.2-1.5,0.6-2.7,0.6c-2.9,0-4.8-2-4.8-4.8c0-3,2-5.1,5.1-5.1c1,0,2,0.2,2.4,0.5l-0.4,1.3
			c-0.4-0.2-1.1-0.5-2-0.5c-2.2,0-3.4,1.6-3.4,3.6c0,2.2,1.4,3.5,3.3,3.5c1,0,1.6-0.2,2.1-0.5L358.2,19.3z"/>
		<path fill="#FFCD29" d="M361,15.2c0,2.4,1.6,3.3,3.3,3.3c1.2,0,2-0.2,2.6-0.5l0.3,1.2c-0.6,0.2-1.6,0.6-3.2,0.6
			c-3,0-4.7-2-4.7-4.8s1.7-5.2,4.4-5.2c3.1,0,3.9,2.7,3.9,4.5c0,0.3,0,0.7-0.1,0.8L361,15.2L361,15.2z M366.1,14
			c0-1.1-0.5-2.8-2.4-2.8c-1.7,0-2.5,1.6-2.6,2.8H366.1z"/>
		<path fill="#FFCD29" d="M369.7,18c0.5,0.3,1.4,0.7,2.3,0.7c1.2,0,1.9-0.7,1.9-1.4c0-0.8-0.5-1.3-1.8-1.7c-1.7-0.6-2.5-1.6-2.5-2.7
			c0-1.6,1.2-2.8,3.3-2.8c1,0,1.8,0.2,2.4,0.6l-0.4,1.2c-0.4-0.2-1.1-0.6-2-0.6c-1,0-1.6,0.6-1.6,1.3c0,0.8,0.6,1.2,1.8,1.6
			c1.6,0.7,2.5,1.5,2.5,2.9c0,1.6-1.3,2.9-3.5,2.9c-1.1,0-2-0.2-2.7-0.7L369.7,18z"/>
		<path fill="#FFCD29" d="M390.6,14.8c0,3.5-2.5,5.1-4.8,5.1c-2.5,0-4.6-1.9-4.6-4.9c0-3.2,2.1-5.1,4.8-5.1
			C388.7,10,390.6,12,390.6,14.8z M383.1,15c0,2.1,1.2,3.7,2.9,3.7s2.9-1.6,2.9-3.7c0-1.6-0.8-3.7-2.9-3.7S383.1,13.1,383.1,15z"/>
		<path fill="#FFCD29" d="M393,19.7v-8.2h-1.3v-1.3h1.3V9.7c0-1.3,0.3-2.5,1.1-3.4c0.7-0.7,1.5-0.9,2.3-0.9c0.6,0,1.2,0.2,1.5,0.2
			l-0.2,1.3c-0.2-0.1-0.6-0.2-1.1-0.2c-1.5,0-1.9,1.3-1.9,2.8V10h2.3v1.3h-2.3v8.2H393V19.7z"/>
	</g>
</g>
</svg>
