<?xml version="1.0" encoding="utf-8"?>
<!-- Generator: Adobe Illustrator 18.1.1, SVG Export Plug-In . SVG Version: 6.00 Build 0)  -->
<!DOCTYPE svg PUBLIC "-//W3C//DTD SVG 1.1//EN" "http://www.w3.org/Graphics/SVG/1.1/DTD/svg11.dtd">
<svg version="1.1" xmlns="http://www.w3.org/2000/svg" xmlns:xlink="http://www.w3.org/1999/xlink" x="0px" y="0px" width="674px"
	 height="85px" viewBox="0 0 674 85" enable-background="new 0 0 674 85" xml:space="preserve">
<g id="Layer_2">
	<rect x="-14.3" y="-5.8" display="none" fill="#020202" width="707.1" height="94.7"/>
</g>
<g id="Layer_1">
	<g>
		<path fill="#FFFFFF" d="M37.6,55.9c-0.3-5.1-0.6-11.2-0.5-15.8h-0.2c-1.2,4.3-2.8,8.8-4.6,13.9l-6.5,17.8h-3.6l-5.9-17.4
			c-1.7-5.2-3.2-9.9-4.2-14.2H12c-0.1,4.6-0.4,10.7-0.7,16.2l-1,15.7H5.8l2.6-36.6h6l6.2,17.7c1.5,4.5,2.8,8.5,3.7,12.3h0.2
			c0.9-3.7,2.2-7.7,3.9-12.3l6.5-17.7h6L43.2,72h-4.6L37.6,55.9z"/>
		<path fill="#FFFFFF" d="M69.3,71c-1.2,0.7-4,1.5-7.5,1.5c-7.9,0-13.1-5.4-13.1-13.4c0-8.1,5.5-14,14.1-14c2.8,0,5.3,0.7,6.6,1.4
			l-1.1,3.7c-1.1-0.7-2.9-1.2-5.5-1.2c-6,0-9.3,4.5-9.3,9.9c0,6.1,3.9,9.8,9.1,9.8c2.7,0,4.5-0.7,5.9-1.3L69.3,71z"/>
		<path fill="#FFFFFF" d="M102.9,70.4c-2.1,0.8-6.3,2-11.2,2c-5.5,0-10.1-1.4-13.7-4.8c-3.1-3-5.1-7.9-5.1-13.6
			C73,43,80.5,35,92.7,35c4.2,0,7.5,0.9,9.1,1.7l-1.1,3.9c-2-0.9-4.4-1.6-8.1-1.6c-8.9,0-14.7,5.5-14.7,14.7
			c0,9.3,5.6,14.8,14.1,14.8c3.1,0,5.2-0.4,6.3-1V56.6h-7.4v-3.8h12.1V70.4z"/>
		<path fill="#FFFFFF" d="M132,64.8c0,2.7,0.1,5.1,0.2,7.2H128l-0.3-4.3h-0.1c-1.2,2.1-4,4.9-8.7,4.9c-4.1,0-9.1-2.3-9.1-11.5V45.7
			h4.8v14.5c0,5,1.5,8.4,5.9,8.4c3.2,0,5.4-2.2,6.3-4.3c0.3-0.7,0.4-1.6,0.4-2.4V45.7h4.8V64.8z"/>
		<path fill="#FFFFFF" d="M145.2,38.3c0.1,1.6-1.1,2.9-3,2.9c-1.7,0-2.9-1.3-2.9-2.9c0-1.7,1.2-3,3-3
			C144.1,35.4,145.2,36.7,145.2,38.3z M139.9,72V45.7h4.8V72H139.9z"/>
		<path fill="#FFFFFF" d="M152.6,52.8c0-2.7-0.1-4.9-0.2-7.1h4.2l0.3,4.3h0.1c1.3-2.5,4.3-4.9,8.7-4.9c3.6,0,9.3,2.2,9.3,11.2V72
			h-4.8V56.9c0-4.2-1.6-7.8-6.1-7.8c-3.1,0-5.6,2.2-6.4,4.9c-0.2,0.6-0.3,1.4-0.3,2.2V72h-4.8V52.8z"/>
		<path fill="#FFFFFF" d="M182.7,52.8c0-2.7-0.1-4.9-0.2-7.1h4.2l0.3,4.3h0.1c1.3-2.5,4.3-4.9,8.7-4.9c3.6,0,9.3,2.2,9.3,11.2V72
			h-4.8V56.9c0-4.2-1.6-7.8-6.1-7.8c-3.1,0-5.6,2.2-6.4,4.9c-0.2,0.6-0.3,1.4-0.3,2.2V72h-4.8V52.8z"/>
		<path fill="#FFFFFF" d="M209.8,78.7c1.2-3.2,2.7-9,3.3-13l5.3-0.5c-1.2,4.6-3.6,10.6-5.2,13.2L209.8,78.7z"/>
		<path fill="#FFFFFF" d="M240.5,35.4v15.3h17.7V35.4h4.8V72h-4.8V54.8h-17.7V72h-4.7V35.4H240.5z"/>
		<path fill="#FFFFFF" d="M276.8,38.3c0.1,1.6-1.1,2.9-3,2.9c-1.7,0-2.9-1.3-2.9-2.9c0-1.7,1.2-3,3-3
			C275.7,35.4,276.8,36.7,276.8,38.3z M271.5,72V45.7h4.8V72H271.5z"/>
		<path fill="#FFFFFF" d="M284.2,33.5h4.8V72h-4.8V33.5z"/>
		<path fill="#FFFFFF" d="M297,33.5h4.8V72H297V33.5z"/>
		<path fill="#FFFFFF" d="M309.2,67.1c1.4,0.9,3.9,1.9,6.3,1.9c3.5,0,5.1-1.7,5.1-3.9c0-2.3-1.4-3.5-4.9-4.8
			c-4.7-1.7-6.9-4.3-6.9-7.4c0-4.2,3.4-7.7,9.1-7.7c2.7,0,5,0.8,6.5,1.6l-1.2,3.5c-1-0.7-2.9-1.5-5.4-1.5c-2.8,0-4.4,1.6-4.4,3.6
			c0,2.2,1.6,3.1,5,4.5c4.6,1.7,6.9,4,6.9,7.9c0,4.6-3.6,7.9-9.8,7.9c-2.9,0-5.5-0.7-7.4-1.8L309.2,67.1z"/>
		<path fill="#FFFFFF" d="M331.3,52.8c0-2.7-0.1-4.9-0.2-7.1h4.2l0.2,4.2h0.2c1.5-2.5,3.9-4.8,8.3-4.8c3.6,0,6.3,2.2,7.4,5.3h0.1
			c0.8-1.5,1.8-2.6,2.9-3.4c1.6-1.2,3.3-1.8,5.8-1.8c3.5,0,8.6,2.3,8.6,11.4V72h-4.7V57.1c0-5-1.8-8.1-5.7-8.1c-2.7,0-4.8,2-5.6,4.3
			c-0.2,0.7-0.4,1.5-0.4,2.4V72h-4.7V56.3c0-4.2-1.8-7.2-5.5-7.2c-3,0-5.2,2.4-5.9,4.8c-0.3,0.7-0.4,1.5-0.4,2.3V72h-4.7V52.8z"/>
		<path fill="#FFFFFF" d="M391.2,72l-0.4-3.3h-0.2c-1.5,2.1-4.3,3.9-8,3.9c-5.3,0-8-3.7-8-7.5c0-6.4,5.6-9.8,15.8-9.8v-0.5
			c0-2.2-0.6-6.1-6-6.1c-2.4,0-5,0.8-6.8,2l-1.1-3.1c2.2-1.4,5.3-2.3,8.6-2.3c8,0,10,5.5,10,10.8v9.8c0,2.3,0.1,4.5,0.4,6.3H391.2z
			 M390.5,58.6c-5.2-0.1-11.1,0.8-11.1,5.9c0,3.1,2.1,4.6,4.5,4.6c3.4,0,5.6-2.2,6.4-4.4c0.2-0.5,0.3-1,0.3-1.5V58.6z"/>
		<path fill="#FFFFFF" d="M402.8,52.8c0-2.7-0.1-4.9-0.2-7.1h4.2l0.3,4.3h0.1c1.3-2.5,4.3-4.9,8.7-4.9c3.6,0,9.3,2.2,9.3,11.2V72
			h-4.8V56.9c0-4.2-1.6-7.8-6.1-7.8c-3.1,0-5.6,2.2-6.4,4.9c-0.2,0.6-0.3,1.4-0.3,2.2V72h-4.8V52.8z"/>
		<path fill="#FFFFFF" d="M467.5,72c-1-1-2-2.1-3.4-3.6c-3.1,2.9-6.7,4.2-10.7,4.2c-7.1,0-11.2-4.8-11.2-10.3c0-5,3-8.4,7.2-10.7
			v-0.2c-1.9-2.4-3-5-3-7.7c0-4.5,3.2-9,9.3-9c4.6,0,8.1,3,8.1,7.8c0,3.9-2.2,6.9-8,9.8v0.2c3.1,3.6,6.6,7.6,8.9,10.2
			c1.7-2.6,2.8-6.1,3.5-10.7h4.3c-1,5.8-2.6,10.3-5.3,13.5c2,2.1,3.9,4.1,6,6.5H467.5z M461.7,65.7c-2.2-2.4-6.2-6.8-10.3-11.5
			c-2,1.2-4.7,3.6-4.7,7.4c0,4.2,3.1,7.4,7.5,7.4C457.3,69,460,67.6,461.7,65.7z M450.6,43.4c0,2.6,1.2,4.6,2.8,6.6
			c3.7-2.1,6.1-4.1,6.1-7.2c0-2.2-1.2-4.7-4.2-4.7C452.2,38.1,450.6,40.6,450.6,43.4z"/>
		<path fill="#FFFFFF" d="M488.9,35.8c2.3-0.4,5.3-0.7,9.1-0.7c4.7,0,8.1,1.1,10.3,3c2,1.7,3.2,4.4,3.2,7.7c0,3.3-1,5.9-2.8,7.8
			c-2.5,2.7-6.6,4-11.2,4c-1.4,0-2.7-0.1-3.8-0.3V72h-4.7V35.8z M493.7,53.5c1,0.3,2.3,0.4,3.9,0.4c5.7,0,9.2-2.8,9.2-7.8
			c0-4.8-3.4-7.2-8.6-7.2c-2.1,0-3.6,0.2-4.5,0.4V53.5z"/>
		<path fill="#FFFFFF" d="M530.8,72l-0.4-3.3h-0.2c-1.5,2.1-4.3,3.9-8,3.9c-5.3,0-8-3.7-8-7.5c0-6.4,5.6-9.8,15.8-9.8v-0.5
			c0-2.2-0.6-6.1-6-6.1c-2.4,0-5,0.8-6.8,2l-1.1-3.1c2.2-1.4,5.3-2.3,8.6-2.3c8,0,10,5.5,10,10.8v9.8c0,2.3,0.1,4.5,0.4,6.3H530.8z
			 M530.1,58.6c-5.2-0.1-11.1,0.8-11.1,5.9c0,3.1,2.1,4.6,4.5,4.6c3.4,0,5.6-2.2,6.4-4.4c0.2-0.5,0.3-1,0.3-1.5V58.6z"/>
		<path fill="#FFFFFF" d="M542.4,33.5h4.8V72h-4.8V33.5z"/>
		<path fill="#FFFFFF" d="M557.9,59.7c0.1,6.5,4.2,9.1,9,9.1c3.4,0,5.5-0.6,7.3-1.4l0.8,3.4c-1.7,0.8-4.6,1.6-8.7,1.6
			c-8.1,0-12.9-5.3-12.9-13.2c0-7.9,4.7-14.2,12.3-14.2c8.6,0,10.9,7.5,10.9,12.4c0,1-0.1,1.7-0.2,2.2H557.9z M571.9,56.3
			c0.1-3-1.2-7.8-6.6-7.8c-4.8,0-6.9,4.5-7.3,7.8H571.9z"/>
		<path fill="#FFFFFF" d="M582.9,72V49.4h-3.7v-3.6h3.7v-1.2c0-3.7,0.8-7.1,3-9.2c1.8-1.7,4.2-2.4,6.4-2.4c1.7,0,3.1,0.4,4.1,0.8
			l-0.7,3.7c-0.7-0.3-1.7-0.6-3-0.6c-4.1,0-5.1,3.6-5.1,7.6v1.4h6.4v3.6h-6.4V72H582.9z"/>
		<path fill="#FFFFFF" d="M597.1,67.1c1.4,0.9,3.9,1.9,6.3,1.9c3.5,0,5.1-1.7,5.1-3.9c0-2.3-1.4-3.5-4.9-4.8
			c-4.7-1.7-6.9-4.3-6.9-7.4c0-4.2,3.4-7.7,9.1-7.7c2.7,0,5,0.8,6.5,1.6l-1.2,3.5c-1-0.7-2.9-1.5-5.4-1.5c-2.8,0-4.4,1.6-4.4,3.6
			c0,2.2,1.6,3.1,5,4.5c4.6,1.7,6.9,4,6.9,7.9c0,4.6-3.6,7.9-9.8,7.9c-2.9,0-5.5-0.7-7.4-1.8L597.1,67.1z"/>
		<path fill="#FFFFFF" d="M624,57.8h0.1c0.7-0.9,1.6-2.1,2.3-3l7.7-9.1h5.8l-10.2,10.8L641.3,72h-5.8l-9.1-12.6l-2.4,2.7V72h-4.7
			V33.5h4.7V57.8z"/>
		<path fill="#FFFFFF" d="M647.2,45.7l5.8,15.5c0.6,1.7,1.2,3.8,1.7,5.4h0.1c0.5-1.6,1-3.6,1.7-5.5l5.2-15.4h5l-7.2,18.7
			c-3.4,9-5.8,13.6-9,16.5c-2.3,2.1-4.7,2.9-5.9,3.1l-1.2-4c1.2-0.4,2.8-1.1,4.2-2.3c1.3-1,2.9-2.9,4-5.3c0.2-0.5,0.4-0.9,0.4-1.1
			s-0.1-0.7-0.3-1.2L642,45.7H647.2z"/>
	</g>
	<g>
		<path fill="#FFCD29" d="M12.5,7.4H5V4.7h18.3v2.7h-7.6v22h-3.2V7.4z"/>
		<path fill="#FFCD29" d="M25.7,3.4h3.2v11.1H29c0.5-0.9,1.3-1.7,2.3-2.3c1-0.6,2.1-0.9,3.3-0.9c2.4,0,6.2,1.5,6.2,7.6v10.6h-3.2
			V19.3c0-2.9-1.1-5.3-4.1-5.3c-2.1,0-3.7,1.5-4.3,3.2c-0.2,0.4-0.2,0.9-0.2,1.5v10.7h-3.2V3.4z"/>
		<path fill="#FFCD29" d="M47.9,21.2c0.1,4.4,2.9,6.2,6.1,6.2c2.3,0,3.7-0.4,4.9-0.9l0.6,2.3c-1.1,0.5-3.1,1.1-5.9,1.1
			c-5.5,0-8.7-3.6-8.7-9c0-5.4,3.2-9.6,8.3-9.6c5.8,0,7.3,5.1,7.3,8.4c0,0.7-0.1,1.2-0.1,1.5H47.9z M57.4,18.9
			c0-2.1-0.8-5.3-4.5-5.3c-3.3,0-4.7,3-5,5.3H57.4z"/>
		<path fill="#FFCD29" d="M72.4,4.7h3.2v22.1h10.6v2.7H72.4V4.7z"/>
		<path fill="#FFCD29" d="M99.5,29.5l-0.3-2.2h-0.1c-1,1.4-2.9,2.6-5.4,2.6c-3.6,0-5.4-2.5-5.4-5.1c0-4.3,3.8-6.6,10.7-6.6v-0.4
			c0-1.5-0.4-4.1-4-4.1c-1.7,0-3.4,0.5-4.6,1.3l-0.7-2.1c1.5-1,3.6-1.6,5.8-1.6c5.4,0,6.8,3.7,6.8,7.3v6.6c0,1.5,0.1,3,0.3,4.3H99.5
			z M99,20.4c-3.5-0.1-7.5,0.6-7.5,4c0,2.1,1.4,3.1,3,3.1c2.3,0,3.8-1.5,4.3-3c0.1-0.3,0.2-0.7,0.2-1V20.4z"/>
		<path fill="#FFCD29" d="M108.3,11.7l2.4,9c0.5,2,1,3.8,1.3,5.7h0.1c0.4-1.8,1-3.7,1.6-5.6l2.9-9.1h2.7l2.8,8.9
			c0.7,2.1,1.2,4,1.6,5.8h0.1c0.3-1.8,0.8-3.7,1.4-5.8l2.5-8.9h3.2l-5.7,17.8h-2.9l-2.7-8.5c-0.6-2-1.1-3.7-1.6-5.8h-0.1
			c-0.4,2.1-1,4-1.6,5.9l-2.9,8.4h-2.9L105,11.7H108.3z"/>
		<path fill="#FFCD29" d="M163.1,16.8c0,8.5-5.2,13-11.5,13c-6.5,0-11.1-5.1-11.1-12.6c0-7.9,4.9-13,11.5-13
			C158.7,4.3,163.1,9.5,163.1,16.8z M143.9,17.3c0,5.3,2.9,10,7.9,10c5.1,0,7.9-4.7,7.9-10.3c0-4.9-2.6-10.1-7.9-10.1
			C146.5,6.9,143.9,11.8,143.9,17.3z"/>
		<path fill="#FFCD29" d="M190,6.6c-0.8-0.5-2.1-1-3.6-1c-3.4,0-4.4,2.4-4.4,5.2v0.9h10.4v17.8h-3.2V14.2H182v15.3h-3.2V14.2h-7.5
			v15.3h-3.2V14.2h-2.5v-2.5h2.5V11c0-2.2,0.6-4.4,2.1-5.9c1-1.1,2.6-1.7,4.6-1.7c1.2,0,2.5,0.4,3.1,0.8L177,6.6
			c-0.6-0.3-1.4-0.6-2.2-0.6c-1,0-1.8,0.4-2.3,1c-0.9,1-1.2,2.6-1.2,4.1v0.7h7.5v-1c0-4.7,2.8-7.7,7.8-7.7c1.6,0,3.5,0.5,4.4,1.1
			L190,6.6z"/>
		<path fill="#FFCD29" d="M210.3,28.8c-0.8,0.4-2.7,1-5.1,1c-5.4,0-8.9-3.6-8.9-9.1c0-5.5,3.7-9.4,9.5-9.4c1.9,0,3.6,0.5,4.5,0.9
			l-0.7,2.5c-0.8-0.4-2-0.8-3.7-0.8c-4.1,0-6.3,3-6.3,6.7c0,4.1,2.6,6.6,6.2,6.6c1.8,0,3-0.5,4-0.9L210.3,28.8z"/>
		<path fill="#FFCD29" d="M215.7,21.2c0.1,4.4,2.9,6.2,6.1,6.2c2.3,0,3.7-0.4,4.9-0.9l0.6,2.3c-1.1,0.5-3.1,1.1-5.9,1.1
			c-5.5,0-8.7-3.6-8.7-9c0-5.4,3.2-9.6,8.3-9.6c5.8,0,7.3,5.1,7.3,8.4c0,0.7-0.1,1.2-0.1,1.5H215.7z M225.2,18.9
			c0-2.1-0.8-5.3-4.5-5.3c-3.3,0-4.7,3-5,5.3H225.2z"/>
		<path fill="#FFCD29" d="M231.8,26.2c1,0.6,2.6,1.3,4.3,1.3c2.4,0,3.5-1.2,3.5-2.6c0-1.5-0.9-2.4-3.3-3.3c-3.2-1.1-4.7-2.9-4.7-5
			c0-2.9,2.3-5.2,6.1-5.2c1.8,0,3.4,0.5,4.4,1.1l-0.8,2.4c-0.7-0.4-2-1-3.6-1c-1.9,0-3,1.1-3,2.4c0,1.5,1.1,2.1,3.4,3
			c3.1,1.2,4.7,2.7,4.7,5.4c0,3.1-2.4,5.3-6.6,5.3c-1.9,0-3.7-0.5-5-1.2L231.8,26.2z"/>
		<path fill="#FFCD29" d="M270.7,20.4c0,6.6-4.6,9.4-8.9,9.4c-4.8,0-8.5-3.5-8.5-9.1c0-5.9,3.9-9.4,8.8-9.4
			C267.2,11.3,270.7,15,270.7,20.4z M256.6,20.6c0,3.9,2.2,6.8,5.4,6.8c3.1,0,5.4-2.9,5.4-6.9c0-3-1.5-6.8-5.3-6.8
			C258.2,13.7,256.6,17.3,256.6,20.6z"/>
		<path fill="#FFCD29" d="M275.1,29.5V14.2h-2.5v-2.5h2.5v-0.8c0-2.5,0.6-4.8,2.1-6.2c1.2-1.2,2.8-1.7,4.3-1.7
			c1.1,0,2.1,0.3,2.8,0.5L283.8,6c-0.5-0.2-1.1-0.4-2.1-0.4c-2.8,0-3.5,2.4-3.5,5.1v1h4.3v2.5h-4.3v15.3H275.1z"/>
	</g>
</g>
</svg>
